<?xml version="1.0" encoding="utf-8"?>
<!-- Generator: Adobe Illustrator 16.0.0, SVG Export Plug-In . SVG Version: 6.00 Build 0)  -->
<!DOCTYPE svg PUBLIC "-//W3C//DTD SVG 1.1//EN" "http://www.w3.org/Graphics/SVG/1.1/DTD/svg11.dtd">
<svg version="1.1" id="Layer_1" xmlns="http://www.w3.org/2000/svg" xmlns:xlink="http://www.w3.org/1999/xlink" x="0px" y="0px"
	 width="100px" height="100.004px" viewBox="0 0 100 100.004" style="enable-background:new 0 0 100 100.004;" xml:space="preserve"
	>
<g>
	<path style="fill:#F15A24;" d="M100,94c0,3.313-2.687,6-6,6H6c-3.313,0-6-2.687-6-6V6c0-3.313,2.687-6,6-6h88c3.313,0,6,2.687,6,6
		V94z"/>
	<path style="fill:#FFFFFF;" d="M70.524,52.667c0,1.332-0.465,2.463-1.396,3.392L50.621,74.604C49.642,75.534,48.497,76,47.19,76
		c-1.332,0-2.462-0.466-3.393-1.396l-26.951-26.99c-0.955-0.929-1.766-2.196-2.431-3.805c-0.667-1.609-0.999-3.079-0.999-4.412
		V23.717c0-1.307,0.477-2.436,1.432-3.392s2.087-1.433,3.394-1.433h15.681c1.332,0,2.803,0.333,4.41,0.998
		c1.607,0.667,2.889,1.477,3.846,2.433l26.95,26.914C70.06,50.217,70.524,51.361,70.524,52.667z M28.89,34.366
		c0.943-0.943,1.414-2.08,1.414-3.412c0-1.331-0.471-2.47-1.414-3.411c-0.941-0.942-2.079-1.413-3.411-1.413
		c-1.331,0-2.468,0.471-3.411,1.413c-0.942,0.941-1.412,2.08-1.412,3.411c0,1.332,0.47,2.469,1.412,3.412
		c0.943,0.942,2.08,1.413,3.411,1.413C26.811,35.779,27.948,35.309,28.89,34.366z M85,52.667c0,1.332-0.466,2.463-1.396,3.392
		L65.097,74.604C64.116,75.534,62.973,76,61.666,76c-0.904,0-1.646-0.177-2.224-0.527c-0.578-0.354-1.244-0.918-1.998-1.696
		l17.717-17.718c0.929-0.929,1.395-2.06,1.395-3.392c0-1.306-0.466-2.45-1.395-3.43L48.209,22.323
		c-0.954-0.956-2.237-1.766-3.845-2.433c-1.608-0.665-3.079-0.998-4.411-0.998h8.444c1.332,0,2.803,0.333,4.412,0.998
		c1.605,0.667,2.889,1.477,3.844,2.433l26.951,26.914C84.534,50.217,85,51.361,85,52.667z"/>
</g>
</svg>
