<?xml version="1.0" encoding="utf-8"?>
<!-- Generator: Adobe Illustrator 16.0.0, SVG Export Plug-In . SVG Version: 6.00 Build 0)  -->
<!DOCTYPE svg PUBLIC "-//W3C//DTD SVG 1.1//EN" "http://www.w3.org/Graphics/SVG/1.1/DTD/svg11.dtd">
<svg version="1.1" id="Layer_1" xmlns="http://www.w3.org/2000/svg" xmlns:xlink="http://www.w3.org/1999/xlink" x="0px" y="0px"
	 width="55px" height="55px" viewBox="0 0 55 55" style="enable-background:new 0 0 55 55;" xml:space="preserve">
<path d="M39.186,29.075c0,0.681-0.237,1.259-0.714,1.733l-9.459,9.478C28.513,40.762,27.928,41,27.26,41
	c-0.681,0-1.258-0.238-1.733-0.714L11.752,26.493c-0.487-0.476-0.902-1.123-1.241-1.944C10.17,23.727,10,22.975,10,22.293V14.28
	c0-0.669,0.244-1.245,0.731-1.733c0.488-0.489,1.066-0.732,1.734-0.732h8.014c0.681,0,1.433,0.17,2.255,0.51
	c0.82,0.341,1.476,0.755,1.965,1.243l13.772,13.755C38.948,27.822,39.186,28.407,39.186,29.075z M17.907,19.722
	c0.481-0.481,0.723-1.062,0.723-1.743c0-0.68-0.241-1.263-0.723-1.743c-0.481-0.481-1.062-0.722-1.743-0.722
	s-1.261,0.24-1.743,0.722c-0.481,0.48-0.722,1.063-0.722,1.743c0,0.681,0.24,1.262,0.722,1.743c0.482,0.482,1.062,0.723,1.743,0.723
	S17.426,20.204,17.907,19.722z M46.583,29.075c0,0.681-0.238,1.259-0.713,1.733l-9.459,9.478C35.91,40.762,35.326,41,34.658,41
	c-0.462,0-0.842-0.091-1.137-0.27c-0.295-0.182-0.636-0.47-1.021-0.867l9.055-9.055c0.475-0.475,0.713-1.053,0.713-1.733
	c0-0.668-0.238-1.253-0.713-1.753L27.78,13.567c-0.487-0.488-1.144-0.902-1.965-1.243c-0.821-0.34-1.573-0.51-2.254-0.51h4.315
	c0.681,0,1.433,0.17,2.255,0.51c0.82,0.341,1.476,0.755,1.965,1.243L45.87,27.322C46.345,27.822,46.583,28.407,46.583,29.075z"/>
</svg>
